<!--?xml version="1.0" encoding="UTF-8"?-->

<svg style="fill-opacity:1; color-rendering:auto; color-interpolation:auto; text-rendering:auto; stroke:black; stroke-linecap:square; stroke-miterlimit:10; shape-rendering:auto; stroke-opacity:1; fill:black; stroke-dasharray:none; font-weight:normal; stroke-width:1; font-family:'Dialog'; font-style:normal; stroke-linejoin:miter; font-size:12; stroke-dashoffset:0; image-rendering:auto;" xmlns="http://www.w3.org/2000/svg" width="783.0" viewBox="0 0 783.0 486.0" xmlns:xlink="http://www.w3.org/1999/xlink" height="486.0"><!--Generated by the Batik Graphics2D SVG Generator--><defs id="genericDefs"></defs><g><g transform="translate(6,6)" style="text-rendering:optimizeLegibility; font-size:10; font-family:sans-serif; stroke-linecap:round; stroke-linejoin:round;"><line y2="456" style="fill:none;" x1="355.819" x2="358.5716" y1="456"></line><text x="340.5254" xml:space="preserve" y="471" style="stroke:none;">3.2E-4</text><path style="fill:none;" d="M428.7175 219.8531 L353.9874 219.8531 L353.9874 244.6198"></path><path style="fill:none;" d="M291.0862 364.1667 L287.8071 364.1667 L287.8071 358.1805"></path><path style="fill:none;" d="M287.8071 358.1805 L287.807 358.1805 L287.807 343.2153"></path><path style="fill:none;" d="M370.1913 292.3333 L332.5839 292.3333 L332.5839 296.3241"></path><path style="fill:none;" d="M572.0829 191.3801 L505.9415 191.3801 L505.9415 201.9493"></path><path style="fill:none;" d="M596.6329 180.5926 L593.329 180.5926 L593.329 184.5833"></path><path style="fill:none;" d="M593.3293 127.2164 L593.3292 127.2164 L593.3292 139.9369"></path><path style="fill:none;" d="M360.3354 269.3866 L353.9874 269.3866 L353.9874 244.6198"></path><path style="fill:none;" d="M287.8068 373.8941 L287.8067 373.8941 L287.8067 331.6391"></path><path style="fill:none;" d="M34.1068 436 L7.0732 436 L7.0732 416.3287"></path><path style="fill:none;" d="M379.5294 284.3518 L376.227 284.3518 L376.227 280.3611"></path><path style="fill:none;" d="M631.2841 64.8611 L631.2841 64.8611 L631.2841 56.8796"></path><path style="fill:none;" d="M593.329 184.5833 L593.3288 184.5833 L593.3288 159.8906"></path><path style="fill:none;" d="M294.3844 340.2222 L287.8071 340.2222 L287.8071 336.2315"></path><path style="fill:none;" d="M291.0966 324.2592 L287.8071 324.2592 L287.8071 320.2685"></path><path style="fill:none;" d="M603.3123 100.7778 L593.3294 100.7778 L593.3294 104.7685"></path><path style="fill:none;" d="M353.9874 244.6198 L332.5837 244.6198 L332.5837 270.472"></path><path style="fill:none;" d="M332.5839 296.3241 L332.5837 296.3241 L332.5837 270.472"></path><path style="fill:none;" d="M332.5837 270.472 L325.9765 270.472 L325.9765 289.3841"></path><path style="fill:none;" d="M297.7461 332.2408 L287.8071 332.2408 L287.8071 336.2315"></path><path style="fill:none;" d="M599.9627 140.6852 L593.3293 140.6852 L593.3293 136.6944"></path><path style="fill:none;" d="M619.7533 204.537 L572.0829 204.537 L572.0829 191.3801"></path><path style="fill:none;" d="M428.7205 211.2246 L428.7175 211.2246 L428.7175 219.8531"></path><path style="fill:none;" d="M287.8069 359.6771 L287.8068 359.6771 L287.8068 373.8941"></path><path style="fill:none;" d="M291.0863 372.1482 L287.807 372.1482 L287.807 376.1389"></path><path style="fill:none;" d="M329.0382 308.2963 L325.9765 308.2963 L325.9765 289.3841"></path><path style="fill:none;" d="M291.0869 388.1111 L287.8068 388.1111 L287.8068 373.8941"></path><path style="fill:none;" d="M634.5721 92.7963 L631.2839 92.7963 L631.2839 86.8102"></path><path style="fill:none;" d="M57.9624 428.0185 L27.8437 428.0185 L27.8437 424.0278"></path><path style="fill:none;" d="M593.329 135.1979 L593.3288 135.1979 L593.3288 159.8906"></path><path style="fill:none;" d="M447.1985 256.4167 L438.6752 256.4167 L438.6752 248.4352"></path><path style="fill:none;" d="M287.8066 365.8612 L233.3255 365.8612 L233.3255 388.9584"></path><path style="fill:none;" d="M505.9415 201.9493 L428.7205 201.9493 L428.7205 211.2246"></path><path style="fill:none;" d="M287.8071 336.2315 L287.807 336.2315 L287.807 328.25"></path><path style="fill:none;" d="M593.3293 110.7546 L593.3293 110.7546 L593.3293 117.7384"></path><path style="fill:none;" d="M238.0143 412.0555 L233.3255 412.0555 L233.3255 388.9584"></path><path style="fill:none;" d="M291.0844 348.2037 L287.8071 348.2037 L287.8071 352.1945"></path><path style="fill:none;" d="M634.568 36.9259 L631.2841 36.9259 L631.2841 32.9352"></path><path style="fill:none;" d="M483.9729 260.4074 L447.1985 260.4074 L447.1985 256.4167"></path><path style="fill:none;" d="M634.569 84.8148 L631.2839 84.8148 L631.2839 80.8241"></path><path style="fill:none;" d="M445.6823 244.4445 L441.897 244.4445 L441.897 240.4537"></path><path style="fill:none;" d="M593.329 101.7755 L593.329 101.7755 L593.329 135.1979"></path><path style="fill:none;" d="M631.2842 8.9907 L631.2841 8.9907 L631.2841 14.9769"></path><path style="fill:none;" d="M603.2811 164.6296 L596.5962 164.6296 L596.5962 168.6204"></path><path style="fill:none;" d="M504.9983 252.4259 L447.1985 252.4259 L447.1985 256.4167"></path><path style="fill:none;" d="M294.3928 316.2778 L287.8071 316.2778 L287.8071 320.2685"></path><path style="fill:none;" d="M634.568 68.8519 L631.2841 68.8519 L631.2841 64.8611"></path><path style="fill:none;" d="M291.0858 404.0741 L287.8067 404.0741 L287.8067 400.0833"></path><path style="fill:none;" d="M438.6752 248.4352 L367.6735 248.4352 L367.6735 258.412"></path><path style="fill:none;" d="M441.897 240.4537 L438.6752 240.4537 L438.6752 248.4352"></path><path style="fill:none;" d="M287.8071 320.2685 L287.807 320.2685 L287.807 328.25"></path><path style="fill:none;" d="M631.2841 20.963 L631.2841 20.963 L631.2841 14.9769"></path><path style="fill:none;" d="M596.6331 132.7037 L593.3293 132.7037 L593.3293 136.6944"></path><path style="fill:none;" d="M287.807 343.2153 L287.8069 343.2153 L287.8069 359.6771"></path><path style="fill:none;" d="M287.807 328.25 L287.807 328.25 L287.807 343.2153"></path><path style="fill:none;" d="M459.0859 228.4815 L428.7175 228.4815 L428.7175 219.8531"></path><path style="fill:none;" d="M631.2842 5 L631.2842 5 L631.2842 8.9907"></path><path style="fill:none;" d="M631.2839 40.4178 L631.2838 40.4178 L631.2838 63.614"></path><path style="fill:none;" d="M603.3019 108.7593 L593.3294 108.7593 L593.3294 104.7685"></path><path style="fill:none;" d="M367.6735 258.412 L360.3354 258.412 L360.3354 269.3866"></path><path style="fill:none;" d="M634.5711 76.8333 L631.2839 76.8333 L631.2839 80.8241"></path><path style="fill:none;" d="M0 416.3287 L7.0732 416.3287"></path><path style="fill:none;" d="M596.5962 168.6204 L593.329 168.6204 L593.329 135.1979"></path><path style="fill:none;" d="M428.7207 220.5 L428.7205 220.5 L428.7205 211.2246"></path><path style="fill:none;" d="M287.807 376.1389 L287.8069 376.1389 L287.8069 359.6771"></path><path style="fill:none;" d="M714.3906 44.9074 L660.0335 44.9074 L660.0335 48.8981"></path><path style="fill:none;" d="M599.9726 188.5741 L593.329 188.5741 L593.329 184.5833"></path><path style="fill:none;" d="M593.3293 124.7222 L593.3293 124.7222 L593.3293 117.7384"></path><path style="fill:none;" d="M593.3293 156.6481 L593.3293 156.6481 L593.3293 152.6574"></path><path style="fill:none;" d="M634.5728 60.8704 L631.2841 60.8704 L631.2841 64.8611"></path><path style="fill:none;" d="M637.8793 28.9444 L631.2841 28.9444 L631.2841 32.9352"></path><path style="fill:none;" d="M509.7976 212.5185 L505.9415 212.5185 L505.9415 201.9493"></path><path style="fill:none;" d="M374.206 268.3889 L367.6735 268.3889 L367.6735 258.412"></path><path style="fill:none;" d="M631.2841 14.9769 L631.284 14.9769 L631.284 23.956"></path><path style="fill:none;" d="M631.2839 86.8102 L631.2838 86.8102 L631.2838 63.614"></path><path style="fill:none;" d="M660.0335 48.8981 L631.2841 48.8981 L631.2841 56.8796"></path><path style="fill:none;" d="M376.227 280.3611 L360.3354 280.3611 L360.3354 269.3866"></path><path style="fill:none;" d="M596.634 116.7407 L593.3293 116.7407 L593.3293 110.7546"></path><path style="fill:none;" d="M50.1588 420.037 L27.8437 420.037 L27.8437 424.0278"></path><path style="fill:none;" d="M291.087 396.0926 L287.8067 396.0926 L287.8067 400.0833"></path><path style="fill:none;" d="M593.3294 104.7685 L593.3293 104.7685 L593.3293 110.7546"></path><path style="fill:none;" d="M666.0502 52.8889 L660.0335 52.8889 L660.0335 48.8981"></path><path style="fill:none;" d="M593.3292 139.9369 L593.329 139.9369 L593.329 101.7755"></path><path style="fill:none;" d="M287.8067 400.0833 L287.8066 400.0833 L287.8066 365.8612"></path><path style="fill:none;" d="M599.957 172.6111 L596.5962 172.6111 L596.5962 168.6204"></path><path style="fill:none;" d="M637.1998 196.5556 L587.0287 196.5556 L587.0287 178.2231"></path><path style="fill:none;" d="M27.8437 424.0278 L7.0732 424.0278 L7.0732 416.3287"></path><path style="fill:none;" d="M593.3293 136.6944 L593.3293 136.6944 L593.3293 127.2164"></path><path style="fill:none;" d="M342.5638 300.3148 L332.5839 300.3148 L332.5839 296.3241"></path><path style="fill:none;" d="M631.2841 56.8796 L631.2839 56.8796 L631.2839 40.4178"></path><path style="fill:none;" d="M392.8941 276.3704 L376.227 276.3704 L376.227 280.3611"></path><path style="fill:none;" d="M631.2838 63.614 L593.329 63.614 L593.329 101.7755"></path><path style="fill:none;" d="M291.0863 380.1296 L287.807 380.1296 L287.807 376.1389"></path><path style="fill:none;" d="M593.3293 117.7384 L593.3293 117.7384 L593.3293 127.2164"></path><path style="fill:none;" d="M287.8071 352.1945 L287.8071 352.1945 L287.8071 358.1805"></path><path style="fill:none;" d="M631.2841 32.9352 L631.284 32.9352 L631.284 23.956"></path><path style="fill:none;" d="M325.9765 289.3841 L287.8067 289.3841 L287.8067 331.6391"></path><path style="fill:none;" d="M593.3293 152.6574 L593.3292 152.6574 L593.3292 139.9369"></path><path style="fill:none;" d="M631.2839 80.8241 L631.2839 80.8241 L631.2839 86.8102"></path><path style="fill:none;" d="M233.3255 388.9584 L7.0732 388.9584 L7.0732 416.3287"></path><path style="fill:none;" d="M454.6102 236.463 L441.897 236.463 L441.897 240.4537"></path><path style="fill:none;" d="M596.6333 148.6667 L593.3293 148.6667 L593.3293 152.6574"></path><path style="fill:none;" d="M593.3288 159.8906 L587.0287 159.8906 L587.0287 178.2231"></path><path style="fill:none;" d="M631.284 23.956 L631.2839 23.956 L631.2839 40.4178"></path><path style="fill:none;" d="M631.2842 12.9815 L631.2842 12.9815 L631.2842 8.9907"></path><path style="fill:none;" d="M287.8067 331.6391 L287.8066 331.6391 L287.8066 365.8612"></path><path style="fill:none;" d="M294.416 356.1852 L287.8071 356.1852 L287.8071 352.1945"></path><path style="fill:none;" d="M587.0287 178.2231 L572.0829 178.2231 L572.0829 191.3801"></path><text x="0" y="8" transform="matrix(1,0,0,1,301.0861,359.1667)" style="font-size:8; stroke:none;" xml:space="preserve" class="boxlightblue">DEMO_84_1</text><path id="DEMO_84_1" d="M298.0860900878906,361.16668701171875L348.3360900878906,361.16668701171875L348.3360900878906,369.16668701171875L298.0860900878906,369.16668701171875L298.0860900878906,361.16668701171875" style="stroke-width: 1; stroke: rgb(0, 227, 255); fill: none;"></path><path d="M0,-3.03934274260637L2.6321480259049848,1.519671371303185L-2.6321480259049848,1.519671371303185Z" class="cluster" transform="translate(350.3016777038574,365.16668701171875)" style="fill: rgb(0, 227, 255); stroke: rgb(0, 227, 255);"></path></g><g transform="matrix(1,0,0,1,650.5711,77.8333)" style="text-rendering:optimizeLegibility; font-size:8; font-family:sans-serif; stroke-linecap:round; stroke-linejoin:round;"><text x="0" xml:space="preserve" y="8" style="stroke:none;" class="boxyellow">DEMO_49_1</text><path id="DEMO_49_1" d="M-2,1L48.25,1L48.25,9L-2,9L-2,1" style="stroke-width: 1; stroke: rgb(239, 230, 69); fill: none;"></path><path d="M0,-3.03934274260637L2.6321480259049848,1.519671371303185L-2.6321480259049848,1.519671371303185Z" class="cluster" transform="translate(51.2155876159668,4.77772980928421)" style="fill: rgb(239, 230, 69); stroke: rgb(239, 230, 69);"></path></g><g transform="matrix(1,0,0,1,386.1913,293.3333)" style="text-rendering:optimizeLegibility; font-size:8; font-family:sans-serif; stroke-linecap:round; stroke-linejoin:round;"><text x="0" xml:space="preserve" y="8" style="stroke:none;" class="boxpink">DEMO_67_1</text><path id="DEMO_67_1" d="M-2,1L48.25,1L48.25,9L-2,9L-2,1" style="stroke-width: 1; stroke: rgb(233, 53, 161); fill: none;"></path><path d="M0,-3.03934274260637L2.6321480259049848,1.519671371303185L-2.6321480259049848,1.519671371303185Z" class="cluster" transform="translate(51.2155876159668,4.77772980928421)" style="fill: rgb(233, 53, 161); stroke: rgb(233, 53, 161);"></path></g><g transform="matrix(1,0,0,1,444.7207,221.5)" style="text-rendering:optimizeLegibility; font-size:8; font-family:sans-serif; stroke-linecap:round; stroke-linejoin:round;"><text x="0" xml:space="preserve" y="8" style="stroke:none;" class="boxgreen">DEMO_77_1</text><path id="DEMO_77_1" d="M-2,1L48.25,1L48.25,9L-2,9L-2,1" style="stroke-width: 1; stroke: rgb(0, 203, 133); fill: none;"></path><path d="M0,-3.03934274260637L2.6321480259049848,1.519671371303185L-2.6321480259049848,1.519671371303185Z" class="cluster" transform="translate(51.2155876159668,4.77772980928421)" style="fill: rgb(0, 203, 133); stroke: rgb(0, 203, 133);"></path></g><g transform="matrix(1,0,0,1,612.633,181.5926)" style="text-rendering:optimizeLegibility; font-size:8; font-family:sans-serif; stroke-linecap:round; stroke-linejoin:round;"><text x="0" xml:space="preserve" y="8" style="stroke:none;" class="boxneonblue">DEMO_87_1</text><path id="DEMO_87_1" d="M-2,1L48.25,1L48.25,9L-2,9L-2,1" style="stroke-width: 1; stroke: rgb(83, 126, 255); fill: none;"></path><path d="M0,-3.03934274260637L2.6321480259049848,1.519671371303185L-2.6321480259049848,1.519671371303185Z" class="cluster" transform="translate(51.2155876159668,4.77772980928421)" style="fill: rgb(83, 126, 255); stroke: rgb(83, 126, 255);"></path></g><g transform="matrix(1,0,0,1,730.3907,45.9074)" style="text-rendering:optimizeLegibility; font-size:8; font-family:sans-serif; stroke-linecap:round; stroke-linejoin:round;"><text x="0" xml:space="preserve" y="8" style="stroke:none;" class="boxneonblue">DEMO_25_1</text><path id="DEMO_25_1" d="M-2,0.7777298092842102L48.2155876159668,0.7777298092842102L48.2155876159668,8.666678249835968L-2,8.666678249835968L-2,0.7777298092842102" style="stroke-width: 1; stroke: rgb(83, 126, 255); fill: none;"></path><path d="M0,-3.03934274260637L2.6321480259049848,1.519671371303185L-2.6321480259049848,1.519671371303185Z" class="cluster" transform="translate(51.2155876159668,4.77772980928421)" style="fill: rgb(83, 126, 255); stroke: rgb(83, 126, 255);"></path></g><g transform="matrix(1,0,0,1,615.9726,189.5741)" style="text-rendering:optimizeLegibility; font-size:8; font-family:sans-serif; stroke-linecap:round; stroke-linejoin:round;"><text x="0" xml:space="preserve" y="8" style="stroke:none;" class="boxneonblue">DEMO_64_1</text><path id="DEMO_64_1" d="M-2,1L48.25,1L48.25,9L-2,9L-2,1" style="stroke-width: 1; stroke: rgb(83, 126, 255); fill: none;"></path><path d="M0,-3.03934274260637L2.6321480259049848,1.519671371303185L-2.6321480259049848,1.519671371303185Z" class="cluster" transform="translate(51.2155876159668,4.77772980928421)" style="fill: rgb(83, 126, 255); stroke: rgb(83, 126, 255);"></path></g><g transform="matrix(1,0,0,1,50.1069,437)" style="text-rendering:optimizeLegibility; font-size:8; font-family:sans-serif; stroke-linecap:round; stroke-linejoin:round;"><text x="0" xml:space="preserve" y="8" style="stroke:none;" class="boxblack">DEMO_45_1</text><path id="DEMO_45_1" d="M-2,1L48.25,1L48.25,9L-2,9L-2,1" style="stroke-width: 1; stroke: black; fill: none;"></path><path d="M0,-3.03934274260637L2.6321480259049848,1.519671371303185L-2.6321480259049848,1.519671371303185Z" class="cluster" transform="translate(51.2155876159668,4.77772980928421)" style="fill: black; stroke: black;"></path></g><g transform="matrix(1,0,0,1,395.5293,285.3519)" style="text-rendering:optimizeLegibility; font-size:8; font-family:sans-serif; stroke-linecap:round; stroke-linejoin:round;"><text x="0" xml:space="preserve" y="8" style="stroke:none;" class="boxpink">DEMO_43_1</text><path id="DEMO_43_1" d="M-2,1L48.25,1L48.25,9L-2,9L-2,1" style="stroke-width: 1; stroke: rgb(233, 53, 161); fill: none;"></path><path d="M0,-3.03934274260637L2.6321480259049848,1.519671371303185L-2.6321480259049848,1.519671371303185Z" class="cluster" transform="translate(51.2155876159668,4.77772980928421)" style="fill: rgb(233, 53, 161); stroke: rgb(233, 53, 161);"></path></g><g transform="matrix(1,0,0,1,609.3293,125.7222)" style="text-rendering:optimizeLegibility; font-size:8; font-family:sans-serif; stroke-linecap:round; stroke-linejoin:round;"><text x="0" xml:space="preserve" y="8" style="stroke:none;" class="boxneonblue">DEMO_13_1</text><path id="DEMO_13_1" d="M-2,1L48.25,1L48.25,9L-2,9L-2,1" style="stroke-width: 1; stroke: rgb(83, 126, 255); fill: none;"></path><path d="M0,-3.03934274260637L2.6321480259049848,1.519671371303185L-2.6321480259049848,1.519671371303185Z" class="cluster" transform="translate(51.2155876159668,4.77772980928421)" style="fill: rgb(83, 126, 255); stroke: rgb(83, 126, 255);"></path></g><g transform="matrix(1,0,0,1,310.3845,341.2222)" style="text-rendering:optimizeLegibility; font-size:8; font-family:sans-serif; stroke-linecap:round; stroke-linejoin:round;"><text x="0" xml:space="preserve" y="8" style="stroke:none;" class="boxlightblue">DEMO_14_1</text><path id="DEMO_14_1" d="M-2,1L48.25,1L48.25,9L-2,9L-2,1" style="stroke-width: 1; stroke: rgb(0, 227, 255); fill: none;"></path><path d="M0,-3.03934274260637L2.6321480259049848,1.519671371303185L-2.6321480259049848,1.519671371303185Z" class="cluster" transform="translate(51.2155876159668,4.77772980928421)" style="fill: rgb(0, 227, 255); stroke: rgb(0, 227, 255);"></path></g><g transform="matrix(1,0,0,1,307.0966,325.2593)" style="text-rendering:optimizeLegibility; font-size:8; font-family:sans-serif; stroke-linecap:round; stroke-linejoin:round;"><text x="0" xml:space="preserve" y="8" style="stroke:none;" class="boxlightblue">DEMO_32_1</text><path id="DEMO_32_1" d="M-2,1L48.25,1L48.25,9L-2,9L-2,1" style="stroke-width: 1; stroke: rgb(0, 227, 255); fill: none;"></path><path d="M0,-3.03934274260637L2.6321480259049848,1.519671371303185L-2.6321480259049848,1.519671371303185Z" class="cluster" transform="translate(51.2155876159668,4.77772980928421)" style="fill: rgb(0, 227, 255); stroke: rgb(0, 227, 255);"></path></g><g transform="matrix(1,0,0,1,619.3123,101.7778)" style="text-rendering:optimizeLegibility; font-size:8; font-family:sans-serif; stroke-linecap:round; stroke-linejoin:round;"><text x="0" xml:space="preserve" y="8" style="stroke:none;" class="boxneonblue">DEMO_15_1</text><path id="DEMO_15_1" d="M-2,1L48.25,1L48.25,9L-2,9L-2,1" style="stroke-width: 1; stroke: rgb(83, 126, 255); fill: none;"></path><path d="M0,-3.03934274260637L2.6321480259049848,1.519671371303185L-2.6321480259049848,1.519671371303185Z" class="cluster" transform="translate(51.2155876159668,4.77772980928421)" style="fill: rgb(83, 126, 255); stroke: rgb(83, 126, 255);"></path></g><g transform="matrix(1,0,0,1,609.3293,157.6481)" style="text-rendering:optimizeLegibility; font-size:8; font-family:sans-serif; stroke-linecap:round; stroke-linejoin:round;"><text x="0" xml:space="preserve" y="8" style="stroke:none;" class="boxneonblue">DEMO_2_16</text><path id="DEMO_2_16" d="M-2,1L48.25,1L48.25,9L-2,9L-2,1" style="stroke-width: 1; stroke: rgb(83, 126, 255); fill: none;"></path><path d="M0,-3.03934274260637L2.6321480259049848,1.519671371303185L-2.6321480259049848,1.519671371303185Z" class="cluster" transform="translate(51.2155876159668,4.77772980928421)" style="fill: rgb(83, 126, 255); stroke: rgb(83, 126, 255);"></path></g><g transform="matrix(1,0,0,1,313.7461,333.2407)" style="text-rendering:optimizeLegibility; font-size:8; font-family:sans-serif; stroke-linecap:round; stroke-linejoin:round;"><text x="0" xml:space="preserve" y="8" style="stroke:none;" class="boxlightblue">DEMO_51_1</text><path id="DEMO_51_1" d="M-2,1L48.25,1L48.25,9L-2,9L-2,1" style="stroke-width: 1; stroke: rgb(0, 227, 255); fill: none;"></path><path d="M0,-3.03934274260637L2.6321480259049848,1.519671371303185L-2.6321480259049848,1.519671371303185Z" class="cluster" transform="translate(51.2155876159668,4.77772980928421)" style="fill: rgb(0, 227, 255); stroke: rgb(0, 227, 255);"></path></g><g transform="matrix(1,0,0,1,615.9627,141.6852)" style="text-rendering:optimizeLegibility; font-size:8; font-family:sans-serif; stroke-linecap:round; stroke-linejoin:round;"><text x="0" xml:space="preserve" y="8" style="stroke:none;" class="boxneonblue">DEMO_40_1</text><path id="DEMO_40_1" d="M-2,1L48.25,1L48.25,9L-2,9L-2,1" style="stroke-width: 1; stroke: rgb(83, 126, 255); fill: none;"></path><path d="M0,-3.03934274260637L2.6321480259049848,1.519671371303185L-2.6321480259049848,1.519671371303185Z" class="cluster" transform="translate(51.2155876159668,4.77772980928421)" style="fill: rgb(83, 126, 255); stroke: rgb(83, 126, 255);"></path></g><g transform="matrix(1,0,0,1,650.5728,61.8704)" style="text-rendering:optimizeLegibility; font-size:8; font-family:sans-serif; stroke-linecap:round; stroke-linejoin:round;"><text x="0" xml:space="preserve" y="8" style="stroke:none;" class="boxyellow">DEMO_80_1</text><path id="DEMO_80_1" d="M-2,1L48.25,1L48.25,9L-2,9L-2,1" style="stroke-width: 1; stroke: rgb(239, 230, 69); fill: none;"></path><path d="M0,-3.03934274260637L2.6321480259049848,1.519671371303185L-2.6321480259049848,1.519671371303185Z" class="cluster" transform="translate(51.2155876159668,4.77772980928421)" style="fill: rgb(239, 230, 69); stroke: rgb(239, 230, 69);"></path></g><g transform="matrix(1,0,0,1,653.8794,29.9444)" style="text-rendering:optimizeLegibility; font-size:8; font-family:sans-serif; stroke-linecap:round; stroke-linejoin:round;"><text x="0" xml:space="preserve" y="8" style="stroke:none;" class="boxyellow">DEMO_62_1</text><path id="DEMO_62_1" d="M-2,1L48.25,1L48.25,9L-2,9L-2,1" style="stroke-width: 1; stroke: rgb(239, 230, 69); fill: none;"></path><path d="M0,-3.03934274260637L2.6321480259049848,1.519671371303185L-2.6321480259049848,1.519671371303185Z" class="cluster" transform="translate(51.2155876159668,4.77772980928421)" style="fill: rgb(239, 230, 69); stroke: rgb(239, 230, 69);"></path></g><g transform="matrix(1,0,0,1,635.7533,205.537)" style="text-rendering:optimizeLegibility; font-size:8; font-family:sans-serif; stroke-linecap:round; stroke-linejoin:round;"><text x="0" xml:space="preserve" y="8" style="stroke:none;" class="boxneonblue">DEMO_73_1</text><path id="DEMO_73_1" d="M-2,1L48.25,1L48.25,9L-2,9L-2,1" style="stroke-width: 1; stroke: rgb(83, 126, 255); fill: none;"></path><path d="M0,-3.03934274260637L2.6321480259049848,1.519671371303185L-2.6321480259049848,1.519671371303185Z" class="cluster" transform="translate(51.2155876159668,4.77772980928421)" style="fill: rgb(83, 126, 255); stroke: rgb(83, 126, 255);"></path></g><g transform="matrix(1,0,0,1,525.7976,213.5185)" style="text-rendering:optimizeLegibility; font-size:8; font-family:sans-serif; stroke-linecap:round; stroke-linejoin:round;"><text x="0" xml:space="preserve" y="8" style="stroke:none;" class="boxgreen">DEMO_16_1</text><path id="DEMO_16_1" d="M-2,1L48.25,1L48.25,9L-2,9L-2,1" style="stroke-width: 1; stroke: rgb(0, 203, 133); fill: none;"></path><path d="M0,-3.03934274260637L2.6321480259049848,1.519671371303185L-2.6321480259049848,1.519671371303185Z" class="cluster" transform="translate(51.2155876159668,4.77772980928421)" style="fill: rgb(0, 203, 133); stroke: rgb(0, 203, 133);"></path></g><g transform="matrix(1,0,0,1,390.206,269.3889)" style="text-rendering:optimizeLegibility; font-size:8; font-family:sans-serif; stroke-linecap:round; stroke-linejoin:round;"><text x="0" xml:space="preserve" y="8" style="stroke:none;" class="boxpink">DEMO_65_1</text><path id="DEMO_65_1" d="M-2,1L48.25,1L48.25,9L-2,9L-2,1" style="stroke-width: 1; stroke: rgb(233, 53, 161); fill: none;"></path><path d="M0,-3.03934274260637L2.6321480259049848,1.519671371303185L-2.6321480259049848,1.519671371303185Z" class="cluster" transform="translate(51.2155876159668,4.77772980928421)" style="fill: rgb(233, 53, 161); stroke: rgb(233, 53, 161);"></path></g><g transform="matrix(1,0,0,1,307.0863,373.1481)" style="text-rendering:optimizeLegibility; font-size:8; font-family:sans-serif; stroke-linecap:round; stroke-linejoin:round;"><text x="0" xml:space="preserve" y="8" style="stroke:none;" class="boxlightblue">DEMO_26_1</text><path id="DEMO_26_1" d="M-2,1L48.25,1L48.25,9L-2,9L-2,1" style="stroke-width: 1; stroke: rgb(0, 227, 255); fill: none;"></path><path d="M0,-3.03934274260637L2.6321480259049848,1.519671371303185L-2.6321480259049848,1.519671371303185Z" class="cluster" transform="translate(51.2155876159668,4.77772980928421)" style="fill: rgb(0, 227, 255); stroke: rgb(0, 227, 255);"></path></g><g transform="matrix(1,0,0,1,345.0382,309.2963)" style="text-rendering:optimizeLegibility; font-size:8; font-family:sans-serif; stroke-linecap:round; stroke-linejoin:round;"><text x="0" xml:space="preserve" y="8" style="stroke:none;" class="boxpink">DEMO_29_1</text><path id="DEMO_29_1" d="M-2,0.7777298092842102L48.2155876159668,0.7777298092842102L48.2155876159668,8.666678249835968L-2,8.666678249835968L-2,0.7777298092842102" style="stroke-width: 1; stroke: rgb(233, 53, 161); fill: none;"></path><path d="M0,-3.03934274260637L2.6321480259049848,1.519671371303185L-2.6321480259049848,1.519671371303185Z" class="cluster" transform="translate(51.2155876159668,4.77772980928421)" style="fill: rgb(233, 53, 161); stroke: rgb(233, 53, 161);"></path></g><g transform="matrix(1,0,0,1,307.0868,389.1111)" style="text-rendering:optimizeLegibility; font-size:8; font-family:sans-serif; stroke-linecap:round; stroke-linejoin:round;"><text x="0" xml:space="preserve" y="8" style="stroke:none;" class="boxlightblue">DEMO_72_1</text><path id="DEMO_72_1" d="M-2,1L48.25,1L48.25,9L-2,9L-2,1" style="stroke-width: 1; stroke: rgb(0, 227, 255); fill: none;"></path><path d="M0,-3.03934274260637L2.6321480259049848,1.519671371303185L-2.6321480259049848,1.519671371303185Z" class="cluster" transform="translate(51.2155876159668,4.77772980928421)" style="fill: rgb(0, 227, 255); stroke: rgb(0, 227, 255);"></path></g><g transform="matrix(1,0,0,1,612.634,117.7407)" style="text-rendering:optimizeLegibility; font-size:8; font-family:sans-serif; stroke-linecap:round; stroke-linejoin:round;"><text x="0" xml:space="preserve" y="8" style="stroke:none;" class="boxneonblue">DEMO_12_2</text><path id="DEMO_12_2" d="M-2,1L48.25,1L48.25,9L-2,9L-2,1" style="stroke-width: 1; stroke: rgb(83, 126, 255); fill: none;"></path><path d="M0,-3.03934274260637L2.6321480259049848,1.519671371303185L-2.6321480259049848,1.519671371303185Z" class="cluster" transform="translate(51.2155876159668,4.77772980928421)" style="fill: rgb(83, 126, 255); stroke: rgb(83, 126, 255);"></path></g><g transform="matrix(1,0,0,1,66.1588,421.037)" style="text-rendering:optimizeLegibility; font-size:8; font-family:sans-serif; stroke-linecap:round; stroke-linejoin:round;"><text x="0" xml:space="preserve" y="8" style="stroke:none;" class="boxblack">DEMO_18_1</text><path id="DEMO_18_1" d="M-2,1L48.25,1L48.25,9L-2,9L-2,1" style="stroke-width: 1; stroke: black; fill: none;"></path><path d="M0,-3.03934274260637L2.6321480259049848,1.519671371303185L-2.6321480259049848,1.519671371303185Z" class="cluster" transform="translate(51.2155876159668,4.77772980928421)" style="fill: black; stroke: black;"></path></g><g transform="matrix(1,0,0,1,650.5721,93.7963)" style="text-rendering:optimizeLegibility; font-size:8; font-family:sans-serif; stroke-linecap:round; stroke-linejoin:round;"><text x="0" xml:space="preserve" y="8" style="stroke:none;" class="boxyellow">DEMO_48_1</text><path id="DEMO_48_1" d="M-2,1L48.25,1L48.25,9L-2,9L-2,1" style="stroke-width: 1; stroke: rgb(239, 230, 69); fill: none;"></path><path d="M0,-3.03934274260637L2.6321480259049848,1.519671371303185L-2.6321480259049848,1.519671371303185Z" class="cluster" transform="translate(51.2155876159668,4.77772980928421)" style="fill: rgb(239, 230, 69); stroke: rgb(239, 230, 69);"></path></g><g transform="matrix(1,0,0,1,307.087,397.0926)" style="text-rendering:optimizeLegibility; font-size:8; font-family:sans-serif; stroke-linecap:round; stroke-linejoin:round;"><text x="0" xml:space="preserve" y="8" style="stroke:none;" class="boxlightblue">DEMO_86_1</text><path id="DEMO_86_1" d="M-2,1L48.25,1L48.25,9L-2,9L-2,1" style="stroke-width: 1; stroke: rgb(0, 227, 255); fill: none;"></path><path d="M0,-3.03934274260637L2.6321480259049848,1.519671371303185L-2.6321480259049848,1.519671371303185Z" class="cluster" transform="translate(51.2155876159668,4.77772980928421)" style="fill: rgb(0, 227, 255); stroke: rgb(0, 227, 255);"></path></g><g transform="matrix(1,0,0,1,73.9624,429.0185)" style="text-rendering:optimizeLegibility; font-size:8; font-family:sans-serif; stroke-linecap:round; stroke-linejoin:round;"><text x="0" xml:space="preserve" y="8" style="stroke:none;" class="boxblack">DEMO_5_2</text><path id="DEMO_5_2" d="M-2,1L43.796875,1L43.796875,9L-2,9L-2,1" style="stroke-width: 1; stroke: black; fill: none;"></path><path d="M0,-3.03934274260637L2.6321480259049848,1.519671371303185L-2.6321480259049848,1.519671371303185Z" class="cluster" transform="translate(46.771114349365234,4.77772980928421)" style="fill: black; stroke: black;"></path></g><g transform="matrix(1,0,0,1,254.0143,413.0556)" style="text-rendering:optimizeLegibility; font-size:8; font-family:sans-serif; stroke-linecap:round; stroke-linejoin:round;"><text x="0" xml:space="preserve" y="8" style="stroke:none;" class="boxlightblue">DEMO_38_1</text><path id="DEMO_38_1" d="M-2,1L48.25,1L48.25,9L-2,9L-2,1" style="stroke-width: 1; stroke: rgb(0, 227, 255); fill: none;"></path><path d="M0,-3.03934274260637L2.6321480259049848,1.519671371303185L-2.6321480259049848,1.519671371303185Z" class="cluster" transform="translate(51.2155876159668,4.77772980928421)" style="fill: rgb(0, 227, 255); stroke: rgb(0, 227, 255);"></path></g><g transform="matrix(1,0,0,1,682.0501,53.8889)" style="text-rendering:optimizeLegibility; font-size:8; font-family:sans-serif; stroke-linecap:round; stroke-linejoin:round;"><text x="0" xml:space="preserve" y="8" style="stroke:none;" class="boxyellow">DEMO_66_1</text><path id="DEMO_66_1" d="M-2,0.7777298092842102L48.2155876159668,0.7777298092842102L48.2155876159668,8.666678249835968L-2,8.666678249835968L-2,0.7777298092842102" style="stroke-width: 1; stroke: rgb(239, 230, 69); fill: none;"></path><path d="M0,-3.03934274260637L2.6321480259049848,1.519671371303185L-2.6321480259049848,1.519671371303185Z" class="cluster" transform="translate(51.2155876159668,4.77772980928421)" style="fill: rgb(239, 230, 69); stroke: rgb(239, 230, 69);"></path></g><g transform="matrix(1,0,0,1,307.0844,349.2037)" style="text-rendering:optimizeLegibility; font-size:8; font-family:sans-serif; stroke-linecap:round; stroke-linejoin:round;"><text x="0" xml:space="preserve" y="8" style="stroke:none;" class="boxlightblue">DEMO_8_2</text><path id="DEMO_8_2" d="M-2,1L43.796875,1L43.796875,9L-2,9L-2,1" style="stroke-width: 1; stroke: rgb(0, 227, 255); fill: none;"></path><path d="M0,-3.03934274260637L2.6321480259049848,1.519671371303185L-2.6321480259049848,1.519671371303185Z" class="cluster" transform="translate(46.771114349365234,4.77772980928421)" style="fill: rgb(0, 227, 255); stroke: rgb(0, 227, 255);"></path></g><g transform="matrix(1,0,0,1,615.9569,173.6111)" style="text-rendering:optimizeLegibility; font-size:8; font-family:sans-serif; stroke-linecap:round; stroke-linejoin:round;"><text x="0" xml:space="preserve" y="8" style="stroke:none;" class="boxneonblue">DEMO_36_1</text><path id="DEMO_36_1" d="M-2,1L48.25,1L48.25,9L-2,9L-2,1" style="stroke-width: 1; stroke: rgb(83, 126, 255); fill: none;"></path><path d="M0,-3.03934274260637L2.6321480259049848,1.519671371303185L-2.6321480259049848,1.519671371303185Z" class="cluster" transform="translate(51.2155876159668,4.77772980928421)" style="fill: rgb(83, 126, 255); stroke: rgb(83, 126, 255);"></path></g><g transform="matrix(1,0,0,1,650.568,37.9259)" style="text-rendering:optimizeLegibility; font-size:8; font-family:sans-serif; stroke-linecap:round; stroke-linejoin:round;"><text x="0" xml:space="preserve" y="8" style="stroke:none;" class="boxyellow">DEMO_55_1</text><path id="DEMO_55_1" d="M-2,1L48.25,1L48.25,9L-2,9L-2,1" style="stroke-width: 1; stroke: rgb(239, 230, 69); fill: none;"></path><path d="M0,-3.03934274260637L2.6321480259049848,1.519671371303185L-2.6321480259049848,1.519671371303185Z" class="cluster" transform="translate(51.2155876159668,4.77772980928421)" style="fill: rgb(239, 230, 69); stroke: rgb(239, 230, 69);"></path></g><g transform="matrix(1,0,0,1,653.1998,197.5556)" style="text-rendering:optimizeLegibility; font-size:8; font-family:sans-serif; stroke-linecap:round; stroke-linejoin:round;"><text x="0" xml:space="preserve" y="8" style="stroke:none;" class="boxneonblue">DEMO_57_1</text><path id="DEMO_57_1" d="M-2,1L48.25,1L48.25,9L-2,9L-2,1" style="stroke-width: 1; stroke: rgb(83, 126, 255); fill: none;"></path><path d="M0,-3.03934274260637L2.6321480259049848,1.519671371303185L-2.6321480259049848,1.519671371303185Z" class="cluster" transform="translate(51.2155876159668,4.77772980928421)" style="fill: rgb(83, 126, 255); stroke: rgb(83, 126, 255);"></path></g><g transform="matrix(1,0,0,1,358.5638,301.3148)" style="text-rendering:optimizeLegibility; font-size:8; font-family:sans-serif; stroke-linecap:round; stroke-linejoin:round;"><text x="0" xml:space="preserve" y="8" style="stroke:none;" class="boxpink">DEMO_23_1</text><path id="DEMO_23_1" d="M-2,1L48.25,1L48.25,9L-2,9L-2,1" style="stroke-width: 1; stroke: rgb(233, 53, 161); fill: none;"></path><path d="M0,-3.03934274260637L2.6321480259049848,1.519671371303185L-2.6321480259049848,1.519671371303185Z" class="cluster" transform="translate(51.2155876159668,4.77772980928421)" style="fill: rgb(233, 53, 161); stroke: rgb(233, 53, 161);"></path></g><g transform="matrix(1,0,0,1,499.9729,261.4074)" style="text-rendering:optimizeLegibility; font-size:8; font-family:sans-serif; stroke-linecap:round; stroke-linejoin:round;"><text x="0" xml:space="preserve" y="8" style="stroke:none;" class="boxorange">DEMO_4_3</text><path id="DEMO_4_3" d="M-2,1L43.796875,1L43.796875,9L-2,9L-2,1" style="stroke-width: 1; stroke: orange; fill: none;"></path><path d="M0,-3.03934274260637L2.6321480259049848,1.519671371303185L-2.6321480259049848,1.519671371303185Z" class="cluster" transform="translate(46.771114349365234,4.77772980928421)" style="fill: orange; stroke: orange;"></path></g><g transform="matrix(1,0,0,1,650.569,85.8148)" style="text-rendering:optimizeLegibility; font-size:8; font-family:sans-serif; stroke-linecap:round; stroke-linejoin:round;"><text x="0" xml:space="preserve" y="8" style="stroke:none;" class="boxyellow">DEMO_21_1</text><path id="DEMO_21_1" d="M-2,1L48.25,1L48.25,9L-2,9L-2,1" style="stroke-width: 1; stroke: rgb(239, 230, 69); fill: none;"></path><path d="M0,-3.03934274260637L2.6321480259049848,1.519671371303185L-2.6321480259049848,1.519671371303185Z" class="cluster" transform="translate(51.2155876159668,4.77772980928421)" style="fill: rgb(239, 230, 69); stroke: rgb(239, 230, 69);"></path></g><g transform="matrix(1,0,0,1,461.6823,245.4444)" style="text-rendering:optimizeLegibility; font-size:8; font-family:sans-serif; stroke-linecap:round; stroke-linejoin:round;"><text x="0" xml:space="preserve" y="8" style="stroke:none;" class="boxorange">DEMO_58_1</text><path id="DEMO_58_1" d="M-2,1L48.25,1L48.25,9L-2,9L-2,1" style="stroke-width: 1; stroke: orange; fill: none;"></path><path d="M0,-3.03934274260637L2.6321480259049848,1.519671371303185L-2.6321480259049848,1.519671371303185Z" class="cluster" transform="translate(51.2155876159668,4.77772980928421)" style="fill: orange; stroke: orange;"></path></g><g transform="matrix(1,0,0,1,408.8941,277.3704)" style="text-rendering:optimizeLegibility; font-size:8; font-family:sans-serif; stroke-linecap:round; stroke-linejoin:round;"><text x="0" xml:space="preserve" y="8" style="stroke:none;" class="boxlightblue">DEMO_6_2</text><path id="DEMO_6_2" d="M-2,1L43.796875,1L43.796875,9L-2,9L-2,1" style="stroke-width: 1; stroke: rgb(0, 227, 255); fill: none;"></path><path d="M0,-3.03934274260637L2.6321480259049848,1.519671371303185L-2.6321480259049848,1.519671371303185Z" class="cluster" transform="translate(46.771114349365234,4.77772980928421)" style="fill: rgb(0, 227, 255); stroke: rgb(0, 227, 255);"></path></g><g transform="matrix(1,0,0,1,307.0863,381.1296)" style="text-rendering:optimizeLegibility; font-size:8; font-family:sans-serif; stroke-linecap:round; stroke-linejoin:round;"><text x="0" xml:space="preserve" y="8" style="stroke:none;" class="boxlightblue">DEMO_61_1</text><path id="DEMO_61_1" d="M-2,1L48.25,1L48.25,9L-2,9L-2,1" style="stroke-width: 1; stroke: rgb(0, 227, 255); fill: none;"></path><path d="M0,-3.03934274260637L2.6321480259049848,1.519671371303185L-2.6321480259049848,1.519671371303185Z" class="cluster" transform="translate(51.2155876159668,4.77772980928421)" style="fill: rgb(0, 227, 255); stroke: rgb(0, 227, 255);"></path></g><g transform="matrix(1,0,0,1,619.2811,165.6296)" style="text-rendering:optimizeLegibility; font-size:8; font-family:sans-serif; stroke-linecap:round; stroke-linejoin:round;"><text x="0" xml:space="preserve" y="8" style="stroke:none;" class="boxneonblue">DEMO_35_1</text><path id="DEMO_35_1" d="M-2,1L48.25,1L48.25,9L-2,9L-2,1" style="stroke-width: 1; stroke: rgb(83, 126, 255); fill: none;"></path><path d="M0,-3.03934274260637L2.6321480259049848,1.519671371303185L-2.6321480259049848,1.519671371303185Z" class="cluster" transform="translate(51.2155876159668,4.77772980928421)" style="fill: rgb(83, 126, 255); stroke: rgb(83, 126, 255);"></path></g><g transform="matrix(1,0,0,1,520.9982,253.4259)" style="text-rendering:optimizeLegibility; font-size:8; font-family:sans-serif; stroke-linecap:round; stroke-linejoin:round;"><text x="0" xml:space="preserve" y="8" style="stroke:none;" class="boxorange">DEMO_10_2</text><path id="DEMO_10_2" d="M-2,1L48.25,1L48.25,9L-2,9L-2,1" style="stroke-width: 1; stroke: orange; fill: none;"></path><path d="M0,-3.03934274260637L2.6321480259049848,1.519671371303185L-2.6321480259049848,1.519671371303185Z" class="cluster" transform="translate(51.2155876159668,4.77772980928421)" style="fill: orange; stroke: orange;"></path></g><g transform="matrix(1,0,0,1,310.3928,317.2778)" style="text-rendering:optimizeLegibility; font-size:8; font-family:sans-serif; stroke-linecap:round; stroke-linejoin:round;"><text x="0" xml:space="preserve" y="8" style="stroke:none;" class="boxlightblue">DEMO_37_1</text><path id="DEMO_37_1" d="M-2,1L48.25,1L48.25,9L-2,9L-2,1" style="stroke-width: 1; stroke: rgb(0, 227, 255); fill: none;"></path><path d="M0,-3.03934274260637L2.6321480259049848,1.519671371303185L-2.6321480259049848,1.519671371303185Z" class="cluster" transform="translate(51.2155876159668,4.77772980928421)" style="fill: rgb(0, 227, 255); stroke: rgb(0, 227, 255);"></path></g><g transform="matrix(1,0,0,1,650.568,69.8519)" style="text-rendering:optimizeLegibility; font-size:8; font-family:sans-serif; stroke-linecap:round; stroke-linejoin:round;"><text x="0" xml:space="preserve" y="8" style="stroke:none;" class="boxyellow">DEMO_44_1</text><path id="DEMO_44_1" d="M-2,1L48.25,1L48.25,9L-2,9L-2,1" style="stroke-width: 1; stroke: rgb(239, 230, 69); fill: none;"></path><path d="M0,-3.03934274260637L2.6321480259049848,1.519671371303185L-2.6321480259049848,1.519671371303185Z" class="cluster" transform="translate(51.2155876159668,4.77772980928421)" style="fill: rgb(239, 230, 69); stroke: rgb(239, 230, 69);"></path></g><g transform="matrix(1,0,0,1,307.0858,405.0741)" style="text-rendering:optimizeLegibility; font-size:8; font-family:sans-serif; stroke-linecap:round; stroke-linejoin:round;"><text x="0" xml:space="preserve" y="8" style="stroke:none;" class="boxlightblue">DEMO_76_1</text><path id="DEMO_76_1" d="M-2,0.5618173480033875L48.22391128540039,0.5618173480033875L48.22391128540039,8.652929484844208L-2,8.652929484844208L-2,0.5618173480033875" style="stroke-width: 1; stroke: rgb(0, 227, 255); fill: none;"></path><path d="M0,-3.03934274260637L2.6321480259049848,1.519671371303185L-2.6321480259049848,1.519671371303185Z" class="cluster" transform="translate(51.2155876159668,4.77772980928421)" style="fill: rgb(0, 227, 255); stroke: rgb(0, 227, 255);"></path></g><g transform="matrix(1,0,0,1,647.2841,21.963)" style="text-rendering:optimizeLegibility; font-size:8; font-family:sans-serif; stroke-linecap:round; stroke-linejoin:round;"><text x="0" xml:space="preserve" y="8" style="stroke:none;" class="boxyellow">DEMO_1_28</text><path id="DEMO_1_28" d="M-2,1L48.25,1L48.25,9L-2,9L-2,1" style="stroke-width: 1; stroke: rgb(239, 230, 69); fill: none;"></path><path d="M0,-3.03934274260637L2.6321480259049848,1.519671371303185L-2.6321480259049848,1.519671371303185Z" class="cluster" transform="translate(51.2155876159668,4.77772980928421)" style="fill: rgb(239, 230, 69); stroke: rgb(239, 230, 69);"></path></g><g transform="matrix(1,0,0,1,612.6331,133.7037)" style="text-rendering:optimizeLegibility; font-size:8; font-family:sans-serif; stroke-linecap:round; stroke-linejoin:round;"><text x="0" xml:space="preserve" y="8" style="stroke:none;" class="boxneonblue">DEMO_11_2</text><path id="DEMO_11_2" d="M-2,1L47.65625,1L47.65625,9L-2,9L-2,1" style="stroke-width: 1; stroke: rgb(83, 126, 255); fill: none;"></path><path d="M0,-3.03934274260637L2.6321480259049848,1.519671371303185L-2.6321480259049848,1.519671371303185Z" class="cluster" transform="translate(50.62530517578125,4.77772980928421)" style="fill: rgb(83, 126, 255); stroke: rgb(83, 126, 255);"></path></g><g transform="matrix(1,0,0,1,470.6102,237.463)" style="text-rendering:optimizeLegibility; font-size:8; font-family:sans-serif; stroke-linecap:round; stroke-linejoin:round;"><text x="0" xml:space="preserve" y="8" style="stroke:none;" class="boxorange">DEMO_52_1</text><path id="DEMO_52_1" d="M-2,1L48.25,1L48.25,9L-2,9L-2,1" style="stroke-width: 1; stroke: orange; fill: none;"></path><path d="M0,-3.03934274260637L2.6321480259049848,1.519671371303185L-2.6321480259049848,1.519671371303185Z" class="cluster" transform="translate(51.2155876159668,4.77772980928421)" style="fill: orange; stroke: orange;"></path></g><g transform="matrix(1,0,0,1,612.6332,149.6667)" style="text-rendering:optimizeLegibility; font-size:8; font-family:sans-serif; stroke-linecap:round; stroke-linejoin:round;"><text x="0" xml:space="preserve" y="8" style="stroke:none;" class="boxneonblue">DEMO_85_1</text><path id="DEMO_85_1" d="M-2,1L48.25,1L48.25,9L-2,9L-2,1" style="stroke-width: 1; stroke: rgb(83, 126, 255); fill: none;"></path><path d="M0,-3.03934274260637L2.6321480259049848,1.519671371303185L-2.6321480259049848,1.519671371303185Z" class="cluster" transform="translate(51.2155876159668,4.77772980928421)" style="fill: rgb(83, 126, 255); stroke: rgb(83, 126, 255);"></path></g><g transform="matrix(1,0,0,1,475.0859,229.4815)" style="text-rendering:optimizeLegibility; font-size:8; font-family:sans-serif; stroke-linecap:round; stroke-linejoin:round;"><text x="0" xml:space="preserve" y="8" style="stroke:none;" class="boxgreen">DEMO_17_1</text><path id="DEMO_17_1" d="M-2,1L48.25,1L48.25,9L-2,9L-2,1" style="stroke-width: 1; stroke: rgb(0, 203, 133); fill: none;"></path><path d="M0,-3.03934274260637L2.6321480259049848,1.519671371303185L-2.6321480259049848,1.519671371303185Z" class="cluster" transform="translate(51.2155876159668,4.77772980928421)" style="fill: rgb(0, 203, 133); stroke: rgb(0, 203, 133);"></path></g><g transform="matrix(1,0,0,1,647.2842,6)" style="text-rendering:optimizeLegibility; font-size:8; font-family:sans-serif; stroke-linecap:round; stroke-linejoin:round;"><text x="0" xml:space="preserve" y="8" style="stroke:none;" class="boxyellow">DEMO_82_1</text><path id="DEMO_82_1" d="M-2,1L48.25,1L48.25,9L-2,9L-2,1" style="stroke-width: 1; stroke: rgb(239, 230, 69); fill: none;"></path><path d="M0,-3.03934274260637L2.6321480259049848,1.519671371303185L-2.6321480259049848,1.519671371303185Z" class="cluster" transform="translate(51.2155876159668,4.77772980928421)" style="fill: rgb(239, 230, 69); stroke: rgb(239, 230, 69);"></path></g><g transform="matrix(1,0,0,1,647.2842,13.9815)" style="text-rendering:optimizeLegibility; font-size:8; font-family:sans-serif; stroke-linecap:round; stroke-linejoin:round;"><text x="0" xml:space="preserve" y="8" style="stroke:none;" class="boxred">DEMO_56_1</text><path id="DEMO_56_1" d="M-2,0.7777298092842102L48.2155876159668,0.7777298092842102L48.2155876159668,8.666678249835968L-2,8.666678249835968L-2,0.7777298092842102" style="stroke-width: 1; stroke: red; fill: none;"></path><path d="M0,-3.03934274260637L2.6321480259049848,1.519671371303185L-2.6321480259049848,1.519671371303185Z" class="cluster" transform="translate(51.2155876159668,4.77772980928421)" style="fill: red; stroke: red;"></path></g><g transform="matrix(1,0,0,1,619.3019,109.7593)" style="text-rendering:optimizeLegibility; font-size:8; font-family:sans-serif; stroke-linecap:round; stroke-linejoin:round;"><text x="0" xml:space="preserve" y="8" style="stroke:none;" class="boxneonblue">DEMO_69_1</text><path id="DEMO_69_1" d="M-2,1L48.25,1L48.25,9L-2,9L-2,1" style="stroke-width: 1; stroke: rgb(83, 126, 255); fill: none;"></path><path d="M0,-3.03934274260637L2.6321480259049848,1.519671371303185L-2.6321480259049848,1.519671371303185Z" class="cluster" transform="translate(51.2155876159668,4.77772980928421)" style="fill: rgb(83, 126, 255); stroke: rgb(83, 126, 255);"></path></g><g transform="matrix(1,0,0,1,310.416,357.1852)" style="text-rendering:optimizeLegibility; font-size:8; font-family:sans-serif; stroke-linecap:round; stroke-linejoin:round;"><text x="0" xml:space="preserve" y="8" style="stroke:none;" class="boxlightblue">DEMO_78_1</text><path id="DEMO_78_1" d="M-2,1L48.25,1L48.25,9L-2,9L-2,1" style="stroke-width: 1; stroke: rgb(0, 227, 255); fill: none;"></path><path d="M0,-3.03934274260637L2.6321480259049848,1.519671371303185L-2.6321480259049848,1.519671371303185Z" class="cluster" transform="translate(51.2155876159668,4.77772980928421)" style="fill: rgb(0, 227, 255); stroke: rgb(0, 227, 255);"></path></g></g></svg>
